<svg xmlns="http://www.w3.org/2000/svg" viewBox="0 0 36.85 36.85">
    <defs>
        <style>.cls-2{fill:#fff;}</style>
    </defs>
    <g id="Layer_2" data-name="Layer 2">
        <g id="Laag_1" data-name="Laag 1">
            <g class="cls-1">
                <path class="cls-2"
                    d="M18.42,0a18.44,18.44,0,1,1-13,5.4,18.34,18.34,0,0,1,13-5.4ZM30.64,6.21A17.27,17.27,0,1,0,35.7,18.42,17.22,17.22,0,0,0,30.64,6.21Z" />
                <path class="cls-2"
                    d="M18.42,4.1A14.31,14.31,0,1,1,8.29,8.29,14.32,14.32,0,0,1,18.42,4.1Zm9.32,5a13.17,13.17,0,1,0,3.86,9.31A13.11,13.11,0,0,0,27.74,9.11Z" />
                <path class="cls-2"
                    d="M18.42,8.74a9.7,9.7,0,1,1-6.84,2.84,9.66,9.66,0,0,1,6.84-2.84Zm6,3.65a8.56,8.56,0,1,0,2.49,6A8.54,8.54,0,0,0,24.46,12.39Z" />
                <path class="cls-2"
                    d="M18.42,14.43A4,4,0,1,1,15.6,15.6a4,4,0,0,1,2.82-1.17Zm2,2a2.84,2.84,0,0,0-4,4,2.84,2.84,0,0,0,4-4Z" />
                <path class="cls-2" d="M32.18,19a.58.58,0,0,0,0-1.15h-7a.58.58,0,1,0,0,1.15Z" />
                <path class="cls-2" d="M19,4.67a.58.58,0,0,0-1.15,0v7a.58.58,0,1,0,1.15,0Z" />
                <path class="cls-2" d="M4.67,17.85a.58.58,0,0,0,0,1.15h7a.58.58,0,1,0,0-1.15Z" />
                <path class="cls-2" d="M17.85,32.18a.58.58,0,0,0,1.15,0v-7a.58.58,0,0,0-1.15,0Z" />
            </g>
        </g>
    </g>
</svg>