<svg xmlns="http://www.w3.org/2000/svg" viewBox="0 0 18.29 18.29"><defs><style>.cls-1{fill:#fff;}</style></defs><g id="Layer_2" data-name="Layer 2"><g id="Laag_1" data-name="Laag 1"><path class="cls-1" d="M16.38,18.29H1.91a1.94,1.94,0,0,1-1.35-.56A1.9,1.9,0,0,1,0,16.38V1.91A1.91,1.91,0,0,1,1.91,0H16.38a1.91,1.91,0,0,1,1.91,1.91V16.38a1.9,1.9,0,0,1-.56,1.35A2,2,0,0,1,16.38,18.29ZM2,16.28H16.28V2H2Zm10.75-1.61a1,1,0,0,1-1-1v-9a1,1,0,0,1,2,0v9.05A1,1,0,0,1,12.76,14.67Zm-3.62,0a1,1,0,0,1-1-1V8.24a1,1,0,0,1,2,0v5.43A1,1,0,0,1,9.14,14.67Zm-3.61,0a1,1,0,0,1-1-1V11.86a1,1,0,1,1,2,0v1.81A1,1,0,0,1,5.53,14.67Z"/></g></g></svg>