<svg xmlns="http://www.w3.org/2000/svg" viewBox="0 0 29.14 27.34">
    <defs>
        <style>.cls-1{fill:#fff;}</style>
    </defs>
    <g id="Layer_2" data-name="Layer 2">
        <g id="Laag_1" data-name="Laag 1">
            <path class="cls-1"
                d="M1.06,25.44a1.05,1.05,0,0,1-.75-.31,1.07,1.07,0,0,1,0-1.5l9.83-9.83a1.07,1.07,0,0,1,1.5,0l2.93,2.94,7.85-7.85a1.06,1.06,0,0,1,1.5,1.5L15.32,19a1.07,1.07,0,0,1-1.5,0l-2.93-2.94L1.81,25.13A1.05,1.05,0,0,1,1.06,25.44Z" />
            <path class="cls-1"
                d="M23.17,15.61a1.06,1.06,0,0,1-1.06-1.06V10.7H18.26a1.06,1.06,0,1,1,0-2.12h4.91a1.05,1.05,0,0,1,1.06,1.06v4.91A1.05,1.05,0,0,1,23.17,15.61Z" />
            <path class="cls-1"
                d="M26.29,27.34H4.65a2.86,2.86,0,0,1-2-.84,2.82,2.82,0,0,1-.84-2V2.85A2.87,2.87,0,0,1,4.65,0H26.29a2.85,2.85,0,0,1,2.85,2.85V24.49a2.85,2.85,0,0,1-.83,2A2.89,2.89,0,0,1,26.29,27.34Zm-21.49-3H26.14V3H4.8Z" />
        </g>
    </g>
</svg>