<?xml version="1.0" encoding="UTF-8"?>
<svg xmlns="http://www.w3.org/2000/svg" viewBox="0 0 29.46 31.08">
    <defs>
        <style>.d{fill:#fff;}</style>
    </defs>
    <g id="a" />
    <g id="b">
        <g id="c">
            <path class="d"
                d="M28.29,31.08c-.29,0-.58-.12-.81-.36l-5.77-6.07c-1.03,.91-2.19,1.65-3.45,2.2-2.41,1.05-5.04,1.32-7.62,.79-2.56-.54-4.89-1.85-6.76-3.8-1.87-1.97-3.13-4.45-3.64-7.16C-.26,13.94,0,11.14,1.02,8.59,2.02,6.04,3.71,3.87,5.9,2.34,8.07,.81,10.61,0,13.23,0c3.53,0,6.84,1.44,9.32,4.07,2.48,2.6,3.9,6.21,3.9,9.89,0,2.79-.78,5.48-2.25,7.78-.25,.39-.52,.77-.8,1.13l5.69,5.98c.47,.49,.49,1.31,.04,1.83-.23,.27-.54,.4-.85,.4ZM13.23,2.59c-2.17,0-4.27,.67-6.07,1.93-1.79,1.26-3.17,3.03-3.99,5.11-.82,2.06-1.04,4.32-.62,6.54,.41,2.2,1.43,4.21,2.96,5.81,1.54,1.6,3.47,2.69,5.58,3.13,2.14,.44,4.32,.22,6.32-.65,1.99-.87,3.68-2.32,4.88-4.21,1.19-1.87,1.82-4.04,1.82-6.29,0-3.02-1.13-5.87-3.17-8.02-2.02-2.13-4.83-3.35-7.71-3.35Z" />
        </g>
    </g>
</svg>