<svg xmlns="http://www.w3.org/2000/svg" viewBox="0 0 23.86 31.16">
<defs>
        <style>.cls-1{fill:#fff;}</style>
    </defs>
    <g id="Layer_2" data-name="Layer 2">
        <g id="Laag_1" data-name="Laag 1">
            <path class="cls-1"
                d="M20.62,31.16H3.24A3.34,3.34,0,0,1,0,27.73V13.42A3.34,3.34,0,0,1,3.24,10H20.62a3.34,3.34,0,0,1,3.24,3.43V27.73A3.34,3.34,0,0,1,20.62,31.16ZM3.24,13c-.06,0-.24.16-.24.47V27.73a.48.48,0,0,0,.24.47H20.62a.48.48,0,0,0,.24-.47V13.42c0-.31-.17-.47-.24-.47Z" />
            <path class="cls-1"
                d="M11.93,0a1.47,1.47,0,0,1,1,.41l10.43,9.75a1.46,1.46,0,0,1,.06,2.09,1.51,1.51,0,0,1-2.12.06l-9.4-8.79-9.4,8.79a1.51,1.51,0,0,1-2.12-.06,1.46,1.46,0,0,1,.06-2.09L10.9.41A1.47,1.47,0,0,1,11.93,0Z" />
        </g>
    </g>
</svg>